<svg width="220" height="45" viewBox="0 0 220 45" fill="none" xmlns="http://www.w3.org/2000/svg">
<path d="M101.45 15.0566C101.45 6.97744 96.5816 0.856879 86.5045 0.856879H66.2371V43.0888H75.748V10.0377H86.5045C90.4674 10.0377 91.9393 12.4859 91.9393 15.3014C91.9393 18.2393 90.4674 20.5651 86.5045 20.5651H77.3332L90.4674 43.0888H101.337C101.337 43.0888 92.3922 27.9098 92.5054 27.9098C97.9403 26.5632 101.45 22.4013 101.45 15.0566ZM50.3855 0.856879H59.8964V43.0888H50.3855V0.856879ZM19.9277 0.856879L0 43.2112H10.7564L13.9268 36.1113H30.0048L26.0419 27.1753H18.0029L23.8906 14.1997H24.0039L37.3645 43.2112H48.3474L28.4197 0.856879H19.9277ZM136.211 21.1771C139.268 19.341 140.853 16.5255 140.853 12.2411C140.853 5.38609 136.097 0.856879 128.285 0.856879H105.979V43.0888H129.077C137.116 43.0888 142.438 38.4371 142.438 31.2149C142.551 26.3184 139.947 22.6461 136.211 21.1771ZM115.49 9.7929H128.172C130.096 9.7929 131.568 11.3842 131.568 13.4652C131.568 15.5462 130.096 17.1376 128.172 17.1376H115.49V9.7929ZM128.511 34.2751H115.49V25.7064H128.511C130.776 25.7064 132.587 27.5425 132.587 29.9908C132.587 32.439 130.776 34.2751 128.511 34.2751ZM172.556 24.4822C172.556 30.8476 169.839 34.3976 164.404 34.3976C159.082 34.3976 156.365 30.8476 156.365 24.4822V0.856879H146.627V23.7478C146.627 36.8458 152.968 44.068 164.517 44.068C176.066 44.068 182.407 36.8458 182.407 23.7478V0.856879H172.669V24.4822H172.556ZM207.769 17.7496C198.711 15.4238 196.786 15.179 196.786 12.3635C196.786 10.1601 199.051 9.18084 202.901 9.18084C207.996 9.18084 213.317 10.5274 216.374 12.6084L219.432 4.03957C215.355 1.59135 209.694 0 202.901 0C192.823 0 187.162 5.38609 187.162 12.7308C187.162 20.5651 191.352 23.7478 201.089 25.9512C208.675 27.7873 210.26 28.889 210.26 31.2149C210.26 33.6631 208.222 34.7648 204.033 34.7648C198.032 34.7648 192.71 33.1734 188.408 30.6028L185.464 39.6612C190.219 42.3543 197.239 44.068 204.259 44.068C214.11 44.068 219.998 39.1716 219.998 30.8476C220.111 24.115 216.148 19.8306 207.769 17.7496Z" fill="#00006D"/>
</svg>
