<?xml version="1.0" encoding="utf-8"?>
<!-- Generator: Adobe Illustrator 23.0.5, SVG Export Plug-In . SVG Version: 6.00 Build 0)  -->
<svg version="1.1" id="레이어_1" xmlns="http://www.w3.org/2000/svg" xmlns:xlink="http://www.w3.org/1999/xlink" x="0px"
	 y="0px" viewBox="0 0 220 45" style="enable-background:new 0 0 220 45;" xml:space="preserve">
<style type="text/css">
	.st0{fill:#FFFFFF;}
</style>
<path class="st0" d="M101.4,15.1c0-8.1-4.9-14.2-14.9-14.2H66.2v42.2h9.5V10h10.8c4,0,5.4,2.4,5.4,5.3c0,2.9-1.5,5.3-5.4,5.3h-9.2
	l13.1,22.5h10.9c0,0-8.9-15.2-8.8-15.2C97.9,26.6,101.4,22.4,101.4,15.1z M50.4,0.9h9.5v42.2h-9.5V0.9z M19.9,0.9L0,43.2h10.8
	l3.2-7.1H30l-4-8.9h-8l5.9-13H24l13.4,29h11L28.4,0.9H19.9z M136.2,21.2c3.1-1.8,4.6-4.7,4.6-8.9c0-6.9-4.8-11.4-12.6-11.4H106v42.2
	h23.1c8,0,13.4-4.7,13.4-11.9C142.6,26.3,139.9,22.6,136.2,21.2z M115.5,9.8h12.7c1.9,0,3.4,1.6,3.4,3.7s-1.5,3.7-3.4,3.7h-12.7V9.8
	z M128.5,34.3h-13v-8.6h13c2.3,0,4.1,1.8,4.1,4.3C132.6,32.4,130.8,34.3,128.5,34.3z M172.6,24.5c0,6.4-2.7,9.9-8.2,9.9
	c-5.3,0-8-3.5-8-9.9V0.9h-9.7v22.9c0,13.1,6.3,20.3,17.9,20.3s17.9-7.2,17.9-20.3V0.9h-9.7v23.6H172.6z M207.8,17.7
	c-9.1-2.3-11-2.6-11-5.4c0-2.2,2.3-3.2,6.1-3.2c5.1,0,10.4,1.3,13.5,3.4l3.1-8.6c-4.1-2.4-9.7-4-16.5-4c-10.1,0-15.7,5.4-15.7,12.7
	c0,7.8,4.2,11,13.9,13.2c7.6,1.8,9.2,2.9,9.2,5.3c0,2.4-2,3.5-6.2,3.5c-6,0-11.3-1.6-15.6-4.2l-2.9,9.1c4.8,2.7,11.8,4.4,18.8,4.4
	c9.9,0,15.7-4.9,15.7-13.2C220.1,24.1,216.1,19.8,207.8,17.7z"/>
</svg>
